<svg xmlns="http://www.w3.org/2000/svg" width="194.667" height="106.667" viewBox="0 0 146 80"><path d="M67.8 2.3C55.6 6.5 47.5 13.7 41.7 25.5c-3.6 7.3-5 14.6-4.5 23.5.4 6.4 1 8.7 3.1 11.9 1.5 2.2 2.7 4.5 2.7 5.1 0 1.7-8.8 6.8-13 7.5-4.7.8-17.3-.9-24.5-3.3L0 68.3V71c0 2.3.7 3.1 3.8 4.3 13.3 5.3 25.4 6.1 41.2 2.5 5.8-1.3 13.8-2.2 20.7-2.4C82.4 75 87.5 73 99.8 61.7c14.2-13 20.2-16 31.3-15.6 3.2.1 6.1 0 6.4-.2.2-.3-2.2-1.1-5.5-1.7-3.3-.7-6-1.6-6-1.9 0-.4 1.2-2 2.8-3.6l2.7-3-3.5.7c-6.4 1.2-15.4 6.4-23.5 13.8C86.3 66.8 82.4 68.9 71.1 69c-9.7 0-14.7-1.6-19.7-6.5-6.5-6.2-7.9-14.5-4.8-27.5 1.9-8.2 4.9-13.3 11.3-19.4 6.2-5.7 11.9-8.4 19.8-9.2 7.6-.8 12.9.7 18.1 5.2 5.5 4.7 7.2 8.9 7.2 17.9 0 14.2-8.2 24.5-15.3 19.2-1.6-1.1-1.6-1.9-.2-11.2 2.1-14.2 2.1-14.4-2-16.1-11.1-4.6-23.8 1.7-28.5 14.3-3.7 9.9-2.2 16.1 4.6 18.9 4.5 1.9 8.1 1.7 13.2-.6 4-1.8 4.6-1.9 7.4-.4 4.3 2.2 12.6 2.2 16 0 3.3-2.2 8.9-9.7 10.9-14.6.8-2.1 1.4-7 1.4-12 0-7.6-.3-9.1-3-13.9-3.5-6.4-8.3-9.8-16.2-11.7-8.4-2-15.8-1.7-23.5.9M81 26.5c2 2.5-1.5 16.8-5.1 20.6-3.3 3.6-7.9 3.9-11 .8-1.7-1.7-2-2.9-1.5-6.1 1.9-11.5 12.9-21 17.6-15.3" style="fill:#000;stroke:none;stroke-width:.1"/><ellipse cx="132.081" cy="35.531" rx="3.953" ry="4.016" style="fill:#ffd42a;stroke-width:.814148"/><circle cx="133.59" cy="35.612" r="2.404" style="fill:#000;stroke-width:.876841"/><path d="M90.879 66.342c-2.838-.795-5.74-3.452-6.345-5.812-.505-1.97-.005-5.652 1.303-9.609.686-2.074 2.535-5.845 3.815-7.783 2.565-3.882 5.974-7.164 9.064-8.726 3.517-1.778 6.371-1.67 8.536.327.874.805 1.163 1.422 1.36 2.905.638 4.796-2.471 17.108-5.704 22.585-1.7 2.88-3.845 4.77-6.568 5.787-1.033.386-1.417.451-2.935.494-1.24.036-1.971-.013-2.526-.168" style="fill:#ffd42a;stroke-width:.145491" transform="scale(.75)"/><ellipse cx="136.965" cy="45.607" rx="3.953" ry="4.016" style="fill:#ffd42a;stroke-width:.814148"/><circle cx="138.474" cy="45.687" r="2.404" style="fill:#000;stroke-width:.876841"/></svg>