<svg xmlns="http://www.w3.org/2000/svg" viewBox="0 0 336.8 83.6"><path d="M16.9 34.8a23.9 23.9 0 0 0 6.9-1 12.9 12.9 0 0 0 5.2-2.7l.7-7.4-4.7-.5-.8 5a14 14 0 0 1-6.8 1.5 10.8 10.8 0 0 1-8.1-3q-3-3.2-3-9.2 0-5.8 2.8-9.1A9.7 9.7 0 0 1 16.7 5a13.4 13.4 0 0 1 7.5 2l.9 4.7 4.7-.5-.9-7.3a15.6 15.6 0 0 0-4.8-2.8A19.8 19.8 0 0 0 16.8 0a16 16 0 0 0-9.5 2.7 16.2 16.2 0 0 0-5.5 6.8A20.9 20.9 0 0 0 0 17.8a16.6 16.6 0 0 0 4.8 12.3 16.4 16.4 0 0 0 12 4.7Zm28.3 0a12.3 12.3 0 0 0 9-3.3 11.7 11.7 0 0 0 3.4-8.8 13 13 0 0 0-3-8.6q-3-3.6-9-3.6T36.3 14a13.2 13.2 0 0 0-3 8.8 11.8 11.8 0 0 0 3.2 8.7 11.7 11.7 0 0 0 8.6 3.2ZM40.8 17a5.6 5.6 0 0 1 4.6-2 6 6 0 0 1 4.7 2 8.2 8.2 0 0 1 1.7 5.6 9.1 9.1 0 0 1-1.7 5.8 5.7 5.7 0 0 1-4.7 2.2 5.3 5.3 0 0 1-4.7-2.3 9.6 9.6 0 0 1-1.6-5.6 8.8 8.8 0 0 1 1.7-5.7m33.1 13h-4.4v-9a7.5 7.5 0 0 1 1.4-4.2 4.6 4.6 0 0 1 4-1.9 4 4 0 0 1 3.2 1.4q1.2 1.4 1.2 4.7v9.2H78v4.2h10.3v-4.2H85V21a7.7 7.7 0 0 1 1.3-4.3 4.5 4.5 0 0 1 4-1.8 4.1 4.1 0 0 1 3.3 1.4q1.2 1.3 1.2 4.7v9h-1.3v4.3h10.3V30h-3.5V18.9q0-4.3-2.4-6.4a8.3 8.3 0 0 0-5.5-2 8 8 0 0 0-4.9 1.5 9 9 0 0 0-3 3.8 6.8 6.8 0 0 0-2.9-4 8.8 8.8 0 0 0-4.7-1.3 7.9 7.9 0 0 0-4.4 1.2 9 9 0 0 0-2.9 3.1V11h-9v4.3H64v14.8h-3.5v4.2h13.4Zm71.7-11.1q0-4.3-2.4-6.4a8.3 8.3 0 0 0-5.6-2 8 8 0 0 0-4.8 1.5 9 9 0 0 0-3 3.8 6.8 6.8 0 0 0-3-4 8.8 8.8 0 0 0-4.6-1.3 7.9 7.9 0 0 0-4.4 1.2 9 9 0 0 0-3 3.1V11h-9v4.3h3.5v14.8h-3.5v4.2h13.4v-4.2h-4.4v-9.2a7.5 7.5 0 0 1 1.4-4.2 4.6 4.6 0 0 1 4-1.9 4 4 0 0 1 3.2 1.4q1.2 1.4 1.2 4.7v9.2h-1.2v4.2h10.3v-4.2h-3.5V21a7.7 7.7 0 0 1 1.3-4.3 4.5 4.5 0 0 1 4-1.8 4.1 4.1 0 0 1 3.3 1.4q1.2 1.3 1.2 4.6v9.2h-1.3v4.2H149v-4.2h-3.4Zm17.4-8.5q-6 0-9 3.7a13.2 13.2 0 0 0-3.1 8.8 11.8 11.8 0 0 0 3.3 8.7 11.7 11.7 0 0 0 8.6 3.2 12.3 12.3 0 0 0 9-3.3 11.7 11.7 0 0 0 3.4-8.8 13 13 0 0 0-3-8.6q-3-3.7-9.1-3.7Zm4.7 17.9a5.7 5.7 0 0 1-4.7 2.2 5.3 5.3 0 0 1-4.7-2.3 9.6 9.6 0 0 1-1.6-5.6 8.8 8.8 0 0 1 1.7-5.7 5.6 5.6 0 0 1 4.6-2 6 6 0 0 1 4.7 2 8.2 8.2 0 0 1 1.7 5.6 9.1 9.1 0 0 1-1.7 5.8m35.3-9.4q0-4.3-2.4-6.4a8.6 8.6 0 0 0-5.7-2 8.3 8.3 0 0 0-7.8 4.3V11H178v4.3h3.7v14.8H178v4.2h12.5v-4.2h-3.4v-9.4a6.3 6.3 0 0 1 1.5-4.2 5.3 5.3 0 0 1 4.2-1.7 4.2 4.2 0 0 1 3.4 1.4q1.2 1.4 1.2 4.7v9.2H194v4.2h12.5v-4.2H203ZM250.5.5h-12.8v5h3.8l-7.8 20h-.3l-8-20h3.8v-5h-13.3v5h3.2l12 28.8h4.2l12-28.8h3.2zm9.9 9.9q-6 0-9.1 3.7a13.2 13.2 0 0 0-3.1 8.8 11.8 11.8 0 0 0 3.2 8.7 11.7 11.7 0 0 0 8.6 3.2 12.3 12.3 0 0 0 9-3.3 11.7 11.7 0 0 0 3.5-8.8 13 13 0 0 0-3-8.6q-3-3.7-9.1-3.7m4.6 17.9a5.7 5.7 0 0 1-4.7 2.2 5.3 5.3 0 0 1-4.7-2.3 9.6 9.6 0 0 1-1.6-5.6 8.8 8.8 0 0 1 1.7-5.7 5.6 5.6 0 0 1 4.6-2 6 6 0 0 1 4.6 2 8.2 8.2 0 0 1 1.8 5.6 9.1 9.1 0 0 1-1.7 5.8M284.5 11h-9.2v4.3h3.7V30h-3.4v4.2H288V30h-3.5zm-5.8-11h5.7v6.1h-5.7zm23.5 30.4q-6 0-6-7.6 0-7.8 5.8-7.8a9.2 9.2 0 0 1 4.1 1l.8 3.8 4.5-.5-1-6.5a15.5 15.5 0 0 0-4-1.8 17 17 0 0 0-4.2-.5 11.2 11.2 0 0 0-8.5 3.4 12.7 12.7 0 0 0-3.3 9.1q0 5.8 3.2 8.8a11.3 11.3 0 0 0 8.1 3q5.3 0 7.7-2.9a11.5 11.5 0 0 0 2.8-6l-4.7-.9q-1 5.4-5.3 5.4m30-4.1a6.5 6.5 0 0 1-1.6 2.8 5 5 0 0 1-3.8 1.3q-5.8 0-6.3-6.6h15.8a17 17 0 0 0 .3-3.1 10.2 10.2 0 0 0-2.9-7.3 11.6 11.6 0 0 0-16 .7 13.5 13.5 0 0 0-3 9q0 5.8 3.3 8.7a12 12 0 0 0 8.4 3 11.2 11.2 0 0 0 7.4-2.2 8 8 0 0 0 3-5.4Zm-10-10a4.5 4.5 0 0 1 3.8-1.7 4.3 4.3 0 0 1 3.9 1.9 6 6 0 0 1 1 4h-10.3a8.2 8.2 0 0 1 1.6-4.2M101 72.3a1.5 1.5 0 0 0 1.7 1.7c1.5 0 3-1 3.1-3.5a15 15 0 0 0-2-.2c-1.5 0-2.8.5-2.8 2m-57.4 1.5c2.1 0 3.6-1.7 3.6-4.5 0-3-1.6-4.3-3.6-4.3-2.1 0-3.5 1.6-3.5 4.3 0 2.6 1.2 4.5 3.5 4.5"/><path d="M0 83.6h116.9V50H0ZM98 63a14 14 0 0 1 6.3-1.3c3.1 0 5.8 1.6 5.8 5V73c0 .9.3 1.2 1 1.2a2.2 2.2 0 0 0 .6-.1v2.2a5.7 5.7 0 0 1-2.6.6 3 3 0 0 1-3.3-2.9 5.3 5.3 0 0 1-4.7 3c-2 0-4.5-1.2-4.5-4.2 0-3.6 3.5-4.5 6.8-4.5a19 19 0 0 1 2.4.2V68c0-1.5 0-3.3-2.4-3.3a4.5 4.5 0 0 0-2.2.5l-.5 1.6-3.3-.4Zm-1-8.7-6.3 22.3h-4l6.2-22.3Zm-12.5 0h4.1l-6.4 22.3h-4ZM71 62h4.4v5.2H71Zm0 9.3h4.4v5.3H71ZM54.2 62H67l.3 2.2-8 9.2H64l.7-2.3 3.3.4-1 5H54.3l-.5-2.1 8-9.3h-4.5l-.6 2.3-3-.3Zm-10.5-.3c5.2 0 7.8 3.5 7.8 7.6 0 4.7-3.4 7.6-8 7.6-4.5 0-7.6-2.7-7.6-7.4 0-4.3 2.5-7.8 7.8-7.8M6.9 73.5h2v-8.3h-2v-3.1h6.2v2.2a4.8 4.8 0 0 1 4.4-2.5 4.7 4.7 0 0 1 4.8 3.1 4.9 4.9 0 0 1 4.7-3.1 4.7 4.7 0 0 1 5 5v6.7h2v3.2h-6.1v-8.2c0-2.6-.8-3.5-2.5-3.5-2 0-2.8 1.4-2.8 3.4v5.1h2v3.2h-6.2v-8.2c0-2.6-.9-3.5-2.5-3.5-2 0-2.8 1.4-2.8 3.4v5.1h2.7v3.2H7Z"/></svg>