<svg xmlns="http://www.w3.org/2000/svg" width="900" height="600"><path d="M209.883 539.4q0 4.67-1.677 8.39t-4.91 5.827q-3.232 2.106-7.666 2.106-5.313 0-8.767-2.878-2.449-2.072-3.98-5.529-1.53-3.458-1.53-6.722 0-1.896.918-3.247.919-1.351 2.34-1.351 1.15 0 1.946 1.053t1.36 3.124q.684 2.457 1.48 4.107a7.25 7.25 0 0 0 2.242 2.72q1.444 1.07 3.796 1.07 3.232 0 5.253-2.158 2.02-2.16 2.02-5.388 0-2.563-1.09-4.16a7.15 7.15 0 0 0-2.816-2.44q-1.727-.842-4.616-1.79-3.87-1.299-6.478-3.036t-4.139-4.739q-1.53-3-1.53-7.46 0-4.245 1.616-7.546c1.616-3.301 2.637-3.89 4.678-5.072q3.06-1.773 7.2-1.773 3.306 0 5.718 1.176t4.004 3.124 2.326 4.09q.735 2.141.735 4.177 0 1.86-.918 3.352-.92 1.492-2.29 1.492-1.249 0-1.898-.895-.65-.895-1.408-2.931-.98-2.914-2.351-4.546t-4.408-1.632q-2.817 0-4.543 1.772-1.727 1.773-1.727 4.265 0 1.545.588 2.668a5.9 5.9 0 0 0 1.616 1.93q1.029.808 2.082 1.264 1.053.458 3.478 1.334 3.036 1.019 5.497 2.247 2.462 1.228 4.188 2.983 1.727 1.755 2.694 4.44.967 2.687.967 6.582m22.017-36.892q5.583 0 9.587 3.247t6.062 9.232q2.056 5.985 2.057 14.058 0 5.968-1.127 10.847-1.125 4.88-3.38 8.46-2.252 3.58-5.534 5.475-3.282 1.896-7.518 1.896-4.213 0-7.543-1.948t-5.56-5.494q-2.228-3.545-3.367-8.53t-1.138-10.776q0-5.932 1.187-10.882c1.187-4.95 1.939-6.107 3.441-8.424q2.253-3.476 5.486-5.318 3.232-1.843 7.347-1.843m10.334 26.467q0-5.652-1.273-9.793-1.274-4.143-3.637-6.266t-5.424-2.124a7.36 7.36 0 0 0-4.029 1.176q-1.85 1.176-3.184 3.423-1.334 2.245-2.106 5.739-.771 3.492-.771 7.845 0 4.388.771 7.933.772 3.546 2.18 5.88t3.233 3.492a7.3 7.3 0 0 0 4.004 1.159q2.79 0 5.13-2.001t3.723-6.178 1.383-10.285m35.094-17.551h-14.326v13.163h11.975q1.665 0 2.486 1.071.82 1.07.82 2.86 0 1.791-.833 2.844t-2.473 1.053h-11.975v16.954q0 3.23-1.017 4.792t-2.608 1.562q-1.616 0-2.633-1.58t-1.016-4.774v-39.595q0-2.246.465-3.668t1.458-2.071q.991-.65 2.534-.65h17.143q1.739.001 2.584 1.106.845 1.107.845 2.896 0 1.825-.845 2.931-.846 1.106-2.584 1.106m32.13.562h-7.934v37.383q0 3.23-1.004 4.792t-2.596 1.562q-1.616 0-2.633-1.58t-1.016-4.774v-37.383h-7.935q-1.86 0-2.767-1.176t-.906-3.107q0-2.001.943-3.159.942-1.158 2.73-1.158h23.118q1.887 0 2.804 1.193.92 1.194.919 3.124 0 1.93-.93 3.107-.932 1.176-2.793 1.176m38.62 26.607q0 2.457-.844 5.318-.846 2.861-2.657 5.616a14.55 14.55 0 0 1-4.629 4.476q-2.816 1.72-6.563 1.72-2.84 0-5.167-.772a12.4 12.4 0 0 1-4.225-2.405q-1.897-1.632-3.49-4.3-1.42-2.422-2.424-5.423t-1.506-6.406-.502-7.231q0-6.213 1.26-11.128 1.263-4.914 3.613-8.407 2.35-3.492 5.51-5.318t6.735-1.825q4.36 0 7.763 2.492 3.404 2.493 5.216 6.16 1.813 3.669 1.813 6.933 0 1.79-.882 3.16-.882 1.369-2.13 1.369-1.397 0-2.094-.948-.699-.948-1.555-3.265-1.421-3.826-3.343-5.721-1.923-1.896-4.74-1.896-4.48 0-7.138 4.88-2.657 4.878-2.657 13.865 0 6.002 1.176 9.986t3.33 5.95 5.045 1.966q3.135 0 5.302-2.23 2.168-2.228 3.27-6.546.465-2.036 1.15-3.317.687-1.281 2.204-1.281 1.299 0 2.229 1.299t.93 3.23zm29.51 10.425-1.714-6.458H361.28l-1.715 6.599q-1.004 3.861-1.714 5.212-.71 1.352-2.326 1.352-1.372 0-2.425-1.44-1.053-1.438-1.053-3.264 0-1.053.245-2.176t.808-3.124l9.184-33.417q.39-1.44.943-3.458.55-2.019 1.175-3.352.624-1.335 1.64-2.16 1.017-.824 2.511-.824 1.518 0 2.535.825 1.016.825 1.64 2.124.625 1.299 1.054 2.79.428 1.493 1.09 3.984l9.379 33.207q1.102 3.79 1.102 5.511a5.6 5.6 0 0 1-1.04 3.282q-1.042 1.492-2.511 1.492-.857 0-1.47-.439-.612-.438-1.028-1.193t-.894-2.317q-.477-1.562-.82-2.756zm-14.4-14.286h10.727l-5.412-21.237zm50.792-22.746h-7.934v37.383q0 3.23-1.004 4.792t-2.596 1.562q-1.616 0-2.633-1.58t-1.016-4.774v-37.383h-7.935q-1.86 0-2.767-1.176t-.906-3.107q0-2.001.943-3.159.942-1.158 2.73-1.158h23.118q1.886 0 2.804 1.193.92 1.194.919 3.124 0 1.93-.93 3.107-.932 1.176-2.793 1.176m31.004 37.032-1.714-6.458h-14.596l-1.714 6.599q-1.004 3.861-1.714 5.212-.711 1.352-2.327 1.352-1.371 0-2.424-1.44-1.053-1.438-1.053-3.264 0-1.053.244-2.176.246-1.123.809-3.124l9.183-33.417.943-3.458q.551-2.019 1.176-3.352.624-1.335 1.64-2.16 1.017-.824 2.51-.824 1.52 0 2.535.825 1.017.825 1.641 2.124t1.053 2.79q.43 1.493 1.09 3.984l9.38 33.207q1.1 3.79 1.102 5.511a5.6 5.6 0 0 1-1.041 3.282q-1.04 1.492-2.51 1.492-.858 0-1.47-.439-.611-.438-1.028-1.193t-.894-2.317a158 158 0 0 1-.82-2.756zm-14.4-14.286h10.727l-5.412-21.237zm34.604-25.906v37.454h14.743q1.764 0 2.706 1.23.943 1.227.943 3.088 0 1.896-.93 3.072-.931 1.175-2.719 1.175h-17.56q-2.374 0-3.415-1.509-1.041-1.51-1.041-4.88v-39.63q0-3.159.992-4.738.99-1.58 2.608-1.58 1.641 0 2.657 1.562c1.016 1.562 1.016 2.627 1.016 4.756m46.114 40.192-1.714-6.458h-14.596l-1.714 6.599q-1.004 3.861-1.714 5.212-.711 1.352-2.327 1.352-1.371 0-2.424-1.44-1.053-1.438-1.053-3.264 0-1.053.244-2.176.246-1.123.809-3.124l9.183-33.417.943-3.458q.551-2.019 1.176-3.352.624-1.335 1.64-2.16 1.017-.824 2.51-.824 1.52 0 2.535.825 1.017.825 1.641 2.124t1.053 2.79q.43 1.493 1.09 3.984l9.38 33.207q1.102 3.79 1.102 5.511a5.6 5.6 0 0 1-1.041 3.282q-1.04 1.492-2.51 1.492-.858 0-1.47-.439-.611-.438-1.028-1.193t-.894-2.317a158 158 0 0 1-.82-2.756zm-14.4-14.286h10.727l-5.412-21.237zm6.319-40.824 1.102 2.949q.66 1.509.661 2.07 0 .878-1.053.878-1.617 0-3.012-1.018-.686-.491-3.38-4.177t-2.694-4.142q0-.525 1.25-.527h3.305q1.445 0 2.18.738.735.737 1.64 3.229z" style="font-size:12px;font-style:normal;font-weight:400;fill:#b50027;fill-opacity:1;stroke:none;font-family:Arial Rounded MT Bold" transform="matrix(2.12522 0 0 2.41939 -283.414 -988.534)"/><path d="m407.675 487.658 23.163-22.699 3.706 3.243-19.457 19.456zM282.597 613.2l42.619-43.083h7.412l-46.788 46.789zm90.797-125.542 40.303-39.84 3.706 3.243-37.06 36.597zm-108.4 108.401 25.941-25.942h6.95l-29.186 29.648-3.706-3.706zm119.982-108.401 34.743-34.28 3.243 3.242-31.038 31.038zm-113.96 114.424 31.5-31.965h6.95l-35.208 35.207zm125.541-114.424 28.721-28.721 3.243 3.706-25.015 25.015zM276.575 607.641l37.06-37.524h7.412l-40.766 41.23z" style="fill:#b50027;fill-rule:evenodd" transform="matrix(2.12522 0 0 2.41939 -283.414 -988.534)"/></svg>