<svg xmlns="http://www.w3.org/2000/svg" width="900" height="600"><path fill="#b50027" d="M162.634 316.485q0 11.299-3.564 20.299t-10.435 14.097q-6.869 5.096-16.292 5.096-11.292 0-18.632-6.963-5.205-5.013-8.458-13.377Q102 327.27 102 319.374q0-4.587 1.951-7.856 1.953-3.269 4.973-3.269 2.444 0 4.136 2.548t2.89 7.558q1.454 5.945 3.145 9.937a15.408 17.54 0 0 0 4.765 6.58q3.069 2.59 8.067 2.59 6.87 0 11.164-5.222 4.293-5.226 4.293-13.036 0-6.2-2.316-10.064a15.195 17.299 0 0 0-5.985-5.904q-3.67-2.037-9.81-4.33-8.225-3.143-13.767-7.346t-8.796-11.465q-3.252-7.258-3.252-18.049 0-10.27 3.434-18.256c3.435-7.987 5.604-9.412 9.942-12.272q6.503-4.29 15.302-4.29 7.026 0 12.152 2.846t8.509 7.558 4.943 9.896q1.562 5.18 1.562 10.105 0 4.5-1.95 8.11-1.956 3.61-4.867 3.61-2.655 0-4.034-2.166-1.381-2.165-2.992-7.09-2.083-7.05-4.997-11t-9.368-3.948q-5.986 0-9.655 4.287-3.67 4.29-3.67 10.32 0 3.737 1.25 6.454a12.539 14.274 0 0 0 3.434 4.67q2.187 1.954 4.425 3.058 2.238 1.108 7.391 3.227 6.453 2.465 11.683 5.436 5.232 2.971 8.9 7.217 3.67 4.246 5.725 10.743 2.056 6.5 2.056 15.924m46.79-89.256q11.866 0 20.375 7.856t12.883 22.335q4.37 14.48 4.372 34.012 0 14.44-2.395 26.243-2.391 11.807-7.184 20.468-4.786 8.662-11.76 13.247-6.976 4.587-15.978 4.587-8.954 0-16.03-4.713t-11.817-13.292q-4.735-8.577-7.155-20.638t-2.419-26.071q0-14.352 2.523-26.328c2.522-11.976 4.12-14.775 7.313-20.38q4.788-8.41 11.659-12.867 6.868-4.46 15.614-4.46m21.962 64.035q0-13.675-2.706-23.693-2.707-10.024-7.73-15.16t-11.526-5.139a15.642 17.807 0 0 0-8.563 2.845q-3.932 2.845-6.767 8.282-2.835 5.431-4.475 13.885-1.639 8.448-1.639 18.98 0 10.616 1.639 19.193 1.64 8.579 4.633 14.226t6.87 8.448a15.514 17.662 0 0 0 8.51 2.804q5.93 0 10.902-4.84t7.912-14.948 2.94-24.883m74.582-42.463h-30.446v31.847h25.45q3.538 0 5.283 2.59 1.743 2.59 1.743 6.92 0 4.333-1.77 6.88t-5.256 2.549h-25.45v41.018q0 7.814-2.161 11.594t-5.543 3.779q-3.434 0-5.596-3.823t-2.159-11.55v-95.796q0-5.434.988-8.874t3.1-5.01q2.105-1.573 5.384-1.573h36.433q3.696.002 5.492 2.675 1.795 2.679 1.795 7.007 0 4.415-1.795 7.091-1.798 2.676-5.492 2.676m68.283 1.36H357.39v90.444q0 7.814-2.134 11.594t-5.517 3.779q-3.434 0-5.596-3.823t-2.159-11.55V250.16H325.12q-3.952 0-5.88-2.845t-1.925-7.517q0-4.842 2.004-7.643 2.002-2.802 5.801-2.802h49.131q4.01 0 5.96 2.886 1.955 2.89 1.953 7.559 0 4.669-1.977 7.517-1.98 2.845-5.936 2.845m82.076 64.373q0 5.944-1.793 12.866-1.798 6.922-5.647 13.587a30.922 35.202 0 0 1-9.838 10.83q-5.984 4.16-13.948 4.16-6.035 0-10.98-1.867a26.353 30 0 0 1-8.98-5.819q-4.031-3.948-7.417-10.403-3.017-5.86-5.151-13.12t-3.2-15.5-1.068-17.494q0-15.031 2.678-26.923 2.684-11.889 7.679-20.34 4.994-8.448 11.71-12.866t14.313-4.415q9.266 0 16.498 6.029 7.234 6.031 11.085 14.903 3.853 8.877 3.853 16.774 0 4.33-1.874 7.645-1.875 3.312-4.527 3.312-2.969 0-4.45-2.293-1.486-2.294-3.305-7.9-3.02-9.256-7.105-13.84-4.086-4.588-10.073-4.588-9.521 0-15.17 11.807-5.647 11.801-5.647 33.545 0 14.52 2.5 24.16t7.077 14.395 10.721 4.756q6.663 0 11.268-5.395 4.608-5.39 6.95-15.837.988-4.926 2.444-8.025 1.46-3.1 4.684-3.1 2.76 0 4.737 3.143t1.976 7.815zm62.716 25.222L515.4 324.13h-31.016l-3.644 15.966q-2.134 9.341-3.643 12.61t-4.943 3.27q-2.916 0-5.154-3.483-2.238-3.48-2.238-7.897 0-2.548.521-5.265t1.717-7.558l19.518-80.849q.829-3.484 2.004-8.366 1.17-4.885 2.497-8.11 1.327-3.23 3.486-5.226 2.161-1.993 5.336-1.993 3.226 0 5.388 1.996 2.159 1.996 3.485 5.139 1.328 3.142 2.24 6.75.91 3.612 2.316 9.639l19.933 80.34q2.342 9.17 2.342 13.334a11.901 13.549 0 0 1-2.21 7.94q-2.215 3.61-5.337 3.61-1.821 0-3.124-1.062-1.3-1.06-2.185-2.887t-1.9-5.606q-1.013-3.779-1.742-6.667zM488.44 305.19h22.798l-11.502-51.38zm107.945-55.031h-16.862v90.444q0 7.814-2.134 11.594t-5.517 3.779q-3.434 0-5.595-3.823t-2.16-11.55V250.16h-16.863q-3.953 0-5.88-2.845t-1.926-7.517q0-4.842 2.004-7.643 2.002-2.802 5.802-2.802h49.13q4.009 0 5.96 2.886 1.955 2.89 1.953 7.559 0 4.669-1.977 7.517-1.98 2.845-5.935 2.845m65.89 89.595-3.643-15.625h-31.02l-3.642 15.966q-2.134 9.341-3.643 12.61-1.51 3.27-4.945 3.27-2.914 0-5.152-3.483-2.237-3.48-2.237-7.897 0-2.548.518-5.265.523-2.717 1.72-7.558l19.515-80.849 2.004-8.366q1.171-4.885 2.5-8.11 1.326-3.23 3.485-5.226 2.161-1.993 5.334-1.993 3.23 0 5.388 1.996 2.161 1.996 3.487 5.139t2.238 6.75q.914 3.612 2.317 9.639l19.934 80.34q2.338 9.17 2.342 13.334a11.901 13.549 0 0 1-2.212 7.94q-2.21 3.61-5.335 3.61-1.823 0-3.124-1.062-1.298-1.06-2.184-2.887t-1.9-5.606a335.785 382.264 0 0 1-1.743-6.667zm-30.603-34.564h22.797l-11.502-51.38zm73.54-62.676v90.615h31.333q3.749 0 5.75 2.976 2.005 2.969 2.005 7.471 0 4.587-1.977 7.433-1.978 2.842-5.778 2.842h-37.319q-5.045 0-7.258-3.65-2.212-3.654-2.212-11.807v-95.88q0-7.643 2.108-11.464 2.104-3.822 5.543-3.822 3.487 0 5.647 3.779c2.159 3.779 2.159 6.356 2.159 11.507m98.002 97.24-3.642-15.625h-31.02l-3.643 15.966q-2.133 9.341-3.642 12.61-1.511 3.27-4.946 3.27-2.913 0-5.151-3.483-2.238-3.48-2.238-7.897 0-2.548.518-5.265.523-2.717 1.72-7.558l19.516-80.849 2.004-8.366q1.17-4.885 2.499-8.11 1.326-3.23 3.485-5.226 2.162-1.993 5.335-1.993 3.23 0 5.387 1.996 2.161 1.996 3.488 5.139t2.237 6.75q.914 3.612 2.317 9.639l19.934 80.34q2.342 9.17 2.342 13.334a11.901 13.549 0 0 1-2.212 7.94q-2.21 3.61-5.334 3.61-1.824 0-3.124-1.062-1.299-1.06-2.185-2.887t-1.9-5.606a335.785 382.264 0 0 1-1.743-6.667zm-30.603-34.564h22.797l-11.501-51.38zm13.43-98.769 2.341 7.135q1.403 3.65 1.405 5.008 0 2.124-2.238 2.124-3.436 0-6.4-2.463-1.459-1.188-7.184-10.106t-5.726-10.02q0-1.27 2.657-1.276h7.024q3.07 0 4.633 1.786 1.562 1.783 3.485 7.812zM582.985 191.3l49.227-54.917 7.876 7.846-41.35 47.072zM317.167 495.037 407.742 390.8h15.752l-99.435 113.201zM510.13 191.3l85.653-96.389 7.876 7.846-78.76 88.543zM279.757 453.565l55.13-62.764h14.77l-62.027 71.73-7.876-8.966zm254.988-262.264 73.836-82.937 6.892 7.844-65.962 75.093zm-242.19 276.836 66.944-77.336h14.77l-74.824 85.18zm266.802-276.836 61.038-69.487 6.892 8.966-53.162 60.52zM304.369 481.587l78.76-90.786h15.753l-86.637 99.752z"/></svg>